:SAMPLES-PER-SECOND 30
:FRAME-RANGE 1-2009
:FULLY-SPECIFIED
:DEGREES
377
root  -68.8893 38.7299 75.0418 -175.82 52.0989 177.979
RightUpLeg  -24.3844 -22.1956 9.49527
RightLeg  12.3875 -21.9201 -1.65195
RightFoot  -9.50297 -0.169189 6.50999
RightToes  4.71047e-010 1.2921e-014 -6.02303e-014
Spine  6.00281 -3.56418 -8.68922
Spine1  -2.43733 -4.407 3.43597
HEad  1.6978 -40.6948 6.73341
LeftShoulder1  1.29904 -0.104802 -29.9294
LeftArm  8.64905 -4.66661 -26.0794
LeftForeArm  -0.358161 -24.4758 -5.25312
LeftHand  -0.00151366 -0.215307 0.0560501
RightShoulder  0.138215 -3.20052 44.0301
RightArm  52.775 -14.7625 12.5408
RightForeArm  -19.6998 21.652 7.16231
RightHand  0.225457 -1.97218 8.14704
LeftUpLeg  4.15598 14.1033 7.67917
LeftLeg  5.08572 22.7423 -3.8806
LeftFoot  -7.23874 0.712719 -18.5531
LeftToes  2.15783e-011 -7.56106e-012 -8.20802e-012
378
root  -68.4091 38.5368 74.5539 -177.304 54.5464 176.819
RightUpLeg  -21.5419 -12.8734 5.7821
RightLeg  9.10354 -27.3179 0.677068
RightFoot  -9.89482 -0.136069 5.44776
RightToes  4.71047e-010 1.2921e-014 -6.02303e-014
Spine  6.20326 -3.79451 -8.51873
Spine1  -2.48584 -4.55203 2.63753
HEad  2.21536 -39.3219 6.22341
LeftShoulder1  1.21598 0.136519 -30.0407
LeftArm  7.0737 -7.01014 -25.2919
LeftForeArm  1.26841 -26.549 -5.63951
LeftHand  -0.00397736 -0.0189119 0.0883856
RightShoulder  -0.469958 -4.39127 44.4447
RightArm  50.95 -16.4534 12.969
RightForeArm  -19.4961 21.7222 7.05204
RightHand  0.232309 -1.92912 8.26741
LeftUpLeg  5.82592 14.4097 7.36961
LeftLeg  6.77553 23.2679 -3.53875
LeftFoot  -8.77271 0.516036 -20.4942
LeftToes  2.15783e-011 -7.56106e-012 -8.20802e-012
379
root  -67.7776 38.3635 74.0405 -178.853 56.6323 176.136
RightUpLeg  -19.6954 -9.6242 5.39434
RightLeg  9.42057 -26.3989 0.0274052
RightFoot  -9.0102 -0.149005 4.31239
RightToes  4.71047e-010 1.2921e-014 -6.02303e-014
Spine  6.3366 -3.98237 -7.58987
Spine1  -2.19156 -4.69206 1.94996
HEad  3.30493 -38.0949 4.82054
LeftShoulder1  1.2103 0.150766 -30.0243
LeftArm  6.14856 -7.91188 -25.5038
LeftForeArm  3.08551 -28.0515 -5.89525
LeftHand  -0.0119081 -0.283895 0.277472
RightShoulder  -0.824726 -5.06471 44.9968
RightArm  49.2506 -17.7785 13.6566
RightForeArm  -19.3011 20.9694 7.69072
RightHand  0.233713 -1.91323 8.27308
LeftUpLeg  8.01497 15.1489 7.86381
LeftLeg  8.72621 23.1256 -3.23835
LeftFoot  -9.94089 0.338438 -22.591
LeftToes  2.15783e-011 -7.56106e-012 -8.20802e-012
380
root  -67.0211 38.3085 73.5862 -179.012 58.7973 177.01
RightUpLeg  -18.6482 -8.05838 6.42822
RightLeg  11.1817 -26.9068 -0.914558
RightFoot  -7.65419 0.0617323 -3.52356
RightToes  4.71047e-010 1.2921e-014 -6.02303e-014
Spine  6.27221 -3.80704 -5.6476
Spine1  -1.66948 -4.54381 1.79564
HEad  4.60561 -37.1914 2.96755
LeftShoulder1  1.15964 0.30545 -30.1859
LeftArm  6.78044 -8.25896 -26.4067
LeftForeArm  3.81064 -28.8235 -6.04088
LeftHand  -0.006818 -0.425938 0.183712
RightShoulder  -0.916336 -5.19861 46.1448
RightArm  47.5511 -18.4449 14.0432
RightForeArm  -17.9235 19.6683 8.88056
RightHand  0.243763 -1.74448 8.17423
LeftUpLeg  10.1632 20.9418 10.3923
LeftLeg  11.5111 18.0208 -1.93286
LeftFoot  -10.0073 0.36187 -25.5869
LeftToes  2.15783e-011 -7.56106e-012 -8.20802e-012
